<svg xmlns="http://www.w3.org/2000/svg" viewBox="0 0 110 90" fill="none">
  <path d="M34 12v-8M18 19l-6-6M10 35H3M18 50l-6 6M51 16l5-7M62 27l8-3" stroke="#F5A526" stroke-width="2.5" stroke-linecap="round"/>
  <circle cx="35" cy="40" r="23" fill="#FFD452"/><path d="M27 39v3M42 39v3" stroke="#44302B" stroke-width="3" stroke-linecap="round"/><path d="M30 49c3 4 8 4 11 0" stroke="#44302B" stroke-width="2.5" stroke-linecap="round"/><circle cx="22" cy="47" r="4" fill="#F5A9A0"/><circle cx="48" cy="47" r="4" fill="#F5A9A0"/>
  <path d="M45 70c3-10 10-15 17-15 8 0 14 5 16 14 7 0 11 4 11 10H42c0-5 1-8 3-9Z" fill="#D9E9F5" stroke="#B6D4E6" stroke-width="2"/>
</svg>
